# xmcd
#
# Track frame offsets: 
#        182
#        30127
#        47717
#        75752
#        91270
#        110260
#        131442
#        144637
#        160972
#        180052
#        201175
#        217910
#        240277
#
# Disc length: 3635 seconds
#
# Revision: 5
# Processed by: cddbd v1.5.2PL0 Copyright (c) Steve Scherf et al.
# Submitted via: ExactAudioCopy v1.3
#
DISCID=8e0e310d
DTITLE=Ella Fitzgerald and Duke Ellington - Compact Jazz
DYEAR=1993
DGENRE=Jazz
TTITLE0=Take the "A" Train
TTITLE1=Caravan
TTITLE2=I Got It Bad (and That Ain't Good)
TTITLE3=I'm Beginning To See The Light
TTITLE4=I Didn't Know About You
TTITLE5=I Ain't Got Nothin' but the Blues
TTITLE6=Everything but You
TTITLE7=(I've Got) Something to Live For
TTITLE8=Duke's Place
TTITLE9=Passion Flower
TTITLE10=Cottontail
TTITLE11=Mack the Knife
TTITLE12=It Don't Mean a Thing (If it Ain't Got That Swing)
EXTD=YEAR: 1993
EXTT0=
EXTT1=
EXTT2=
EXTT3=
EXTT4=
EXTT5=
EXTT6=
EXTT7=
EXTT8=
EXTT9=
EXTT10=
EXTT11=
EXTT12=
PLAYORDER=
